<mxfile host="Electron" modified="2024-05-01T22:20:15.736Z" agent="Mozilla/5.0 (Windows NT 10.0; Win64; x64) AppleWebKit/537.36 (KHTML, like Gecko) draw.io/24.2.5 Chrome/120.0.6099.109 Electron/28.1.0 Safari/537.36" etag="NC37GXZZSymqx5z1uEhK" version="24.2.5" type="device">
  <diagram name="Page-1" id="FnEajupuEFHm1K5T8d87">
    <mxGraphModel dx="2372" dy="1140" grid="0" gridSize="10" guides="1" tooltips="1" connect="0" arrows="1" fold="1" page="0" pageScale="1" pageWidth="850" pageHeight="1100" math="0" shadow="0">
      <root>
        <mxCell id="0" />
        <mxCell id="1" parent="0" />
        <mxCell id="0NC9Y0o0XBNzcpzKdtO9-19" style="edgeStyle=orthogonalEdgeStyle;rounded=0;orthogonalLoop=1;jettySize=auto;html=1;endArrow=none;endFill=0;" parent="1" source="0NC9Y0o0XBNzcpzKdtO9-1" target="0NC9Y0o0XBNzcpzKdtO9-20" edge="1">
          <mxGeometry relative="1" as="geometry">
            <mxPoint x="450" y="-70.03" as="targetPoint" />
          </mxGeometry>
        </mxCell>
        <mxCell id="PeXRtOiVHppe9KRzmUJ1-21" style="edgeStyle=orthogonalEdgeStyle;rounded=0;orthogonalLoop=1;jettySize=auto;html=1;endArrow=none;endFill=0;" parent="1" source="0NC9Y0o0XBNzcpzKdtO9-1" target="PeXRtOiVHppe9KRzmUJ1-22" edge="1">
          <mxGeometry relative="1" as="geometry">
            <mxPoint x="240" y="-10.030000000000229" as="targetPoint" />
            <Array as="points">
              <mxPoint x="440" y="-70" />
              <mxPoint x="440" y="20" />
            </Array>
          </mxGeometry>
        </mxCell>
        <mxCell id="PeXRtOiVHppe9KRzmUJ1-26" style="edgeStyle=orthogonalEdgeStyle;rounded=0;orthogonalLoop=1;jettySize=auto;html=1;entryX=0;entryY=0.5;entryDx=0;entryDy=0;endArrow=none;endFill=0;" parent="1" source="0NC9Y0o0XBNzcpzKdtO9-1" target="PeXRtOiVHppe9KRzmUJ1-41" edge="1">
          <mxGeometry relative="1" as="geometry">
            <mxPoint x="350" y="-120.03000000000023" as="targetPoint" />
          </mxGeometry>
        </mxCell>
        <mxCell id="PeXRtOiVHppe9KRzmUJ1-53" style="edgeStyle=orthogonalEdgeStyle;rounded=0;orthogonalLoop=1;jettySize=auto;html=1;entryX=0;entryY=0.5;entryDx=0;entryDy=0;endArrow=none;endFill=0;" parent="1" source="0NC9Y0o0XBNzcpzKdtO9-1" target="PeXRtOiVHppe9KRzmUJ1-24" edge="1">
          <mxGeometry relative="1" as="geometry">
            <Array as="points">
              <mxPoint x="440" y="-70" />
              <mxPoint x="440" y="100" />
            </Array>
          </mxGeometry>
        </mxCell>
        <mxCell id="PeXRtOiVHppe9KRzmUJ1-74" style="edgeStyle=orthogonalEdgeStyle;rounded=0;orthogonalLoop=1;jettySize=auto;html=1;entryX=0;entryY=0.5;entryDx=0;entryDy=0;endArrow=none;endFill=0;" parent="1" source="0NC9Y0o0XBNzcpzKdtO9-1" target="PeXRtOiVHppe9KRzmUJ1-29" edge="1">
          <mxGeometry relative="1" as="geometry">
            <Array as="points">
              <mxPoint x="440" y="-70" />
              <mxPoint x="440" y="-120" />
            </Array>
          </mxGeometry>
        </mxCell>
        <mxCell id="0NC9Y0o0XBNzcpzKdtO9-1" value="Students" style="whiteSpace=wrap;html=1;align=center;" parent="1" vertex="1">
          <mxGeometry x="300" y="-90.03" width="100" height="40" as="geometry" />
        </mxCell>
        <mxCell id="PeXRtOiVHppe9KRzmUJ1-43" style="edgeStyle=orthogonalEdgeStyle;rounded=0;orthogonalLoop=1;jettySize=auto;html=1;endArrow=none;endFill=0;" parent="1" source="0NC9Y0o0XBNzcpzKdtO9-4" target="PeXRtOiVHppe9KRzmUJ1-44" edge="1">
          <mxGeometry relative="1" as="geometry">
            <mxPoint x="-250" y="-120.03000000000023" as="targetPoint" />
          </mxGeometry>
        </mxCell>
        <mxCell id="PeXRtOiVHppe9KRzmUJ1-58" style="edgeStyle=orthogonalEdgeStyle;rounded=0;orthogonalLoop=1;jettySize=auto;html=1;entryX=1;entryY=0.5;entryDx=0;entryDy=0;endArrow=none;endFill=0;" parent="1" source="0NC9Y0o0XBNzcpzKdtO9-4" target="PeXRtOiVHppe9KRzmUJ1-33" edge="1">
          <mxGeometry relative="1" as="geometry" />
        </mxCell>
        <mxCell id="0NC9Y0o0XBNzcpzKdtO9-4" value="Admins" style="whiteSpace=wrap;html=1;align=center;" parent="1" vertex="1">
          <mxGeometry x="-300" y="-90.03" width="100" height="40" as="geometry" />
        </mxCell>
        <mxCell id="PeXRtOiVHppe9KRzmUJ1-55" style="edgeStyle=orthogonalEdgeStyle;rounded=0;orthogonalLoop=1;jettySize=auto;html=1;entryX=1;entryY=0.5;entryDx=0;entryDy=0;shape=link;" parent="1" source="0NC9Y0o0XBNzcpzKdtO9-6" target="PeXRtOiVHppe9KRzmUJ1-48" edge="1">
          <mxGeometry relative="1" as="geometry" />
        </mxCell>
        <mxCell id="0NC9Y0o0XBNzcpzKdtO9-6" value="Books" style="whiteSpace=wrap;html=1;align=center;" parent="1" vertex="1">
          <mxGeometry x="5" y="-90" width="100" height="40" as="geometry" />
        </mxCell>
        <mxCell id="PeXRtOiVHppe9KRzmUJ1-79" style="edgeStyle=orthogonalEdgeStyle;rounded=0;orthogonalLoop=1;jettySize=auto;html=1;entryX=0.5;entryY=1;entryDx=0;entryDy=0;endArrow=none;endFill=0;shape=link;" parent="1" source="0NC9Y0o0XBNzcpzKdtO9-9" edge="1">
          <mxGeometry relative="1" as="geometry">
            <mxPoint x="114.00000000000023" y="158.97000000000025" as="targetPoint" />
          </mxGeometry>
        </mxCell>
        <mxCell id="PeXRtOiVHppe9KRzmUJ1-104" style="edgeStyle=orthogonalEdgeStyle;rounded=0;orthogonalLoop=1;jettySize=auto;html=1;entryX=0;entryY=0.5;entryDx=0;entryDy=0;endArrow=none;endFill=0;" parent="1" source="0NC9Y0o0XBNzcpzKdtO9-9" target="PeXRtOiVHppe9KRzmUJ1-103" edge="1">
          <mxGeometry relative="1" as="geometry" />
        </mxCell>
        <mxCell id="0NC9Y0o0XBNzcpzKdtO9-9" value="Authors" style="shape=ext;margin=3;double=1;whiteSpace=wrap;html=1;align=center;strokeColor=default;" parent="1" vertex="1">
          <mxGeometry x="64" y="199" width="100" height="40" as="geometry" />
        </mxCell>
        <mxCell id="0NC9Y0o0XBNzcpzKdtO9-13" value="Name" style="ellipse;whiteSpace=wrap;html=1;align=center;" parent="1" vertex="1">
          <mxGeometry x="51" y="-327" width="100" height="40" as="geometry" />
        </mxCell>
        <mxCell id="PeXRtOiVHppe9KRzmUJ1-54" style="edgeStyle=orthogonalEdgeStyle;rounded=0;orthogonalLoop=1;jettySize=auto;html=1;entryX=0;entryY=0.5;entryDx=0;entryDy=0;endArrow=none;endFill=0;" parent="1" source="0NC9Y0o0XBNzcpzKdtO9-20" target="PeXRtOiVHppe9KRzmUJ1-18" edge="1">
          <mxGeometry relative="1" as="geometry">
            <Array as="points">
              <mxPoint x="440" y="-70" />
              <mxPoint x="440" y="50" />
              <mxPoint x="620" y="50" />
            </Array>
          </mxGeometry>
        </mxCell>
        <mxCell id="PeXRtOiVHppe9KRzmUJ1-75" style="edgeStyle=orthogonalEdgeStyle;rounded=0;orthogonalLoop=1;jettySize=auto;html=1;entryX=0;entryY=0.5;entryDx=0;entryDy=0;endArrow=none;endFill=0;" parent="1" source="0NC9Y0o0XBNzcpzKdtO9-20" target="EMKNZlUPLuMflJqEqhBI-5" edge="1">
          <mxGeometry relative="1" as="geometry">
            <Array as="points">
              <mxPoint x="530" y="-20" />
            </Array>
          </mxGeometry>
        </mxCell>
        <mxCell id="0NC9Y0o0XBNzcpzKdtO9-20" value="&lt;div&gt;&lt;span style=&quot;background-color: initial;&quot;&gt;Name&lt;/span&gt;&lt;br&gt;&lt;/div&gt;" style="ellipse;whiteSpace=wrap;html=1;align=center;" parent="1" vertex="1">
          <mxGeometry x="480" y="-90.03" width="100" height="40" as="geometry" />
        </mxCell>
        <mxCell id="0NC9Y0o0XBNzcpzKdtO9-23" value="First_Name" style="ellipse;whiteSpace=wrap;html=1;align=center;" parent="1" vertex="1">
          <mxGeometry x="620" y="-90" width="100" height="40" as="geometry" />
        </mxCell>
        <mxCell id="EMKNZlUPLuMflJqEqhBI-5" value="Last_Name" style="ellipse;whiteSpace=wrap;html=1;align=center;" parent="1" vertex="1">
          <mxGeometry x="620" y="-40.03000000000023" width="100" height="40" as="geometry" />
        </mxCell>
        <mxCell id="4kVZr0BEafaqYxeCBqYQ-102" style="rounded=0;orthogonalLoop=1;jettySize=auto;html=1;endArrow=none;endFill=0;" edge="1" parent="1" source="PeXRtOiVHppe9KRzmUJ1-4">
          <mxGeometry relative="1" as="geometry">
            <mxPoint x="72" y="-91" as="targetPoint" />
          </mxGeometry>
        </mxCell>
        <mxCell id="PeXRtOiVHppe9KRzmUJ1-4" value="Publication Year" style="ellipse;whiteSpace=wrap;html=1;align=center;" parent="1" vertex="1">
          <mxGeometry x="174" y="-327" width="100" height="40" as="geometry" />
        </mxCell>
        <mxCell id="PeXRtOiVHppe9KRzmUJ1-18" value="Student_ID" style="ellipse;whiteSpace=wrap;html=1;align=center;fontStyle=4;" parent="1" vertex="1">
          <mxGeometry x="620" y="30" width="100" height="40" as="geometry" />
        </mxCell>
        <mxCell id="PeXRtOiVHppe9KRzmUJ1-22" value="Date_of_birth" style="ellipse;whiteSpace=wrap;html=1;align=center;" parent="1" vertex="1">
          <mxGeometry x="480" y="-0.03000000000022851" width="100" height="40" as="geometry" />
        </mxCell>
        <mxCell id="PeXRtOiVHppe9KRzmUJ1-24" value="Age" style="ellipse;whiteSpace=wrap;html=1;align=center;dashed=1;" parent="1" vertex="1">
          <mxGeometry x="620" y="80" width="100" height="40" as="geometry" />
        </mxCell>
        <mxCell id="PeXRtOiVHppe9KRzmUJ1-29" value="&lt;u&gt;EMail&lt;/u&gt;" style="ellipse;whiteSpace=wrap;html=1;align=center;" parent="1" vertex="1">
          <mxGeometry x="620" y="-140.00000000000023" width="100" height="40" as="geometry" />
        </mxCell>
        <mxCell id="PeXRtOiVHppe9KRzmUJ1-32" style="edgeStyle=orthogonalEdgeStyle;rounded=0;orthogonalLoop=1;jettySize=auto;html=1;endArrow=none;endFill=0;" parent="1" source="PeXRtOiVHppe9KRzmUJ1-33" target="PeXRtOiVHppe9KRzmUJ1-34" edge="1">
          <mxGeometry relative="1" as="geometry" />
        </mxCell>
        <mxCell id="PeXRtOiVHppe9KRzmUJ1-56" style="edgeStyle=orthogonalEdgeStyle;rounded=0;orthogonalLoop=1;jettySize=auto;html=1;entryX=1;entryY=0.5;entryDx=0;entryDy=0;endArrow=none;endFill=0;" parent="1" source="PeXRtOiVHppe9KRzmUJ1-33" target="PeXRtOiVHppe9KRzmUJ1-35" edge="1">
          <mxGeometry relative="1" as="geometry" />
        </mxCell>
        <mxCell id="PeXRtOiVHppe9KRzmUJ1-33" value="Name" style="ellipse;whiteSpace=wrap;html=1;align=center;" parent="1" vertex="1">
          <mxGeometry x="-440" y="-90.03" width="100" height="40" as="geometry" />
        </mxCell>
        <mxCell id="PeXRtOiVHppe9KRzmUJ1-34" value="First_name" style="ellipse;whiteSpace=wrap;html=1;align=center;" parent="1" vertex="1">
          <mxGeometry x="-600" y="-130.03" width="100" height="40" as="geometry" />
        </mxCell>
        <mxCell id="PeXRtOiVHppe9KRzmUJ1-35" value="Last_name" style="ellipse;whiteSpace=wrap;html=1;align=center;" parent="1" vertex="1">
          <mxGeometry x="-600.0000000000002" y="-40.03000000000023" width="100" height="40" as="geometry" />
        </mxCell>
        <mxCell id="PeXRtOiVHppe9KRzmUJ1-41" value="Phone_Number" style="ellipse;whiteSpace=wrap;html=1;align=center;" parent="1" vertex="1">
          <mxGeometry x="480" y="-170.03" width="100" height="40" as="geometry" />
        </mxCell>
        <mxCell id="PeXRtOiVHppe9KRzmUJ1-44" value="SSN" style="ellipse;whiteSpace=wrap;html=1;align=center;fontStyle=4;" parent="1" vertex="1">
          <mxGeometry x="-300" y="-23.970000000000226" width="100" height="40" as="geometry" />
        </mxCell>
        <mxCell id="PeXRtOiVHppe9KRzmUJ1-59" style="edgeStyle=orthogonalEdgeStyle;rounded=0;orthogonalLoop=1;jettySize=auto;html=1;entryX=1;entryY=0.5;entryDx=0;entryDy=0;endArrow=none;endFill=0;" parent="1" target="0NC9Y0o0XBNzcpzKdtO9-4" edge="1">
          <mxGeometry relative="1" as="geometry">
            <mxPoint x="-90" y="-70" as="sourcePoint" />
          </mxGeometry>
        </mxCell>
        <mxCell id="PeXRtOiVHppe9KRzmUJ1-48" value="Manage&lt;div&gt;Add / Edit&lt;/div&gt;" style="shape=rhombus;perimeter=rhombusPerimeter;whiteSpace=wrap;html=1;align=center;" parent="1" vertex="1">
          <mxGeometry x="-165" y="-100" width="120" height="60" as="geometry" />
        </mxCell>
        <mxCell id="PeXRtOiVHppe9KRzmUJ1-39" value="Genre" style="ellipse;shape=doubleEllipse;whiteSpace=wrap;html=1;" parent="1" vertex="1">
          <mxGeometry x="225" y="-277" width="100" height="40" as="geometry" />
        </mxCell>
        <mxCell id="PeXRtOiVHppe9KRzmUJ1-71" style="edgeStyle=orthogonalEdgeStyle;rounded=0;orthogonalLoop=1;jettySize=auto;html=1;entryX=0;entryY=0.5;entryDx=0;entryDy=0;endArrow=none;endFill=0;" parent="1" source="PeXRtOiVHppe9KRzmUJ1-67" target="0NC9Y0o0XBNzcpzKdtO9-1" edge="1">
          <mxGeometry relative="1" as="geometry">
            <Array as="points">
              <mxPoint x="269" y="-14" />
              <mxPoint x="269" y="-70" />
            </Array>
          </mxGeometry>
        </mxCell>
        <mxCell id="PeXRtOiVHppe9KRzmUJ1-78" style="edgeStyle=orthogonalEdgeStyle;rounded=0;orthogonalLoop=1;jettySize=auto;html=1;entryX=1;entryY=0.5;entryDx=0;entryDy=0;endArrow=none;endFill=0;" parent="1" source="PeXRtOiVHppe9KRzmUJ1-67" target="0NC9Y0o0XBNzcpzKdtO9-6" edge="1">
          <mxGeometry relative="1" as="geometry">
            <Array as="points">
              <mxPoint x="124" y="-14" />
              <mxPoint x="124" y="-70" />
            </Array>
          </mxGeometry>
        </mxCell>
        <mxCell id="4kVZr0BEafaqYxeCBqYQ-64" value="" style="edgeStyle=orthogonalEdgeStyle;rounded=0;orthogonalLoop=1;jettySize=auto;html=1;endArrow=none;endFill=0;entryX=0.523;entryY=0.014;entryDx=0;entryDy=0;entryPerimeter=0;" edge="1" parent="1">
          <mxGeometry relative="1" as="geometry">
            <mxPoint x="264.00000000000006" y="36" as="sourcePoint" />
            <mxPoint x="389.29999999999995" y="56.559999999999945" as="targetPoint" />
          </mxGeometry>
        </mxCell>
        <mxCell id="4kVZr0BEafaqYxeCBqYQ-67" style="edgeStyle=orthogonalEdgeStyle;rounded=0;orthogonalLoop=1;jettySize=auto;html=1;endArrow=none;endFill=0;" edge="1" parent="1" source="PeXRtOiVHppe9KRzmUJ1-67" target="4kVZr0BEafaqYxeCBqYQ-68">
          <mxGeometry relative="1" as="geometry">
            <mxPoint x="204" y="62.85714285714289" as="targetPoint" />
          </mxGeometry>
        </mxCell>
        <mxCell id="4kVZr0BEafaqYxeCBqYQ-84" style="edgeStyle=orthogonalEdgeStyle;rounded=0;orthogonalLoop=1;jettySize=auto;html=1;endArrow=none;endFill=0;" edge="1" parent="1" source="PeXRtOiVHppe9KRzmUJ1-67">
          <mxGeometry relative="1" as="geometry">
            <mxPoint x="181" y="55" as="targetPoint" />
          </mxGeometry>
        </mxCell>
        <mxCell id="PeXRtOiVHppe9KRzmUJ1-67" value="Borrow" style="shape=rhombus;perimeter=rhombusPerimeter;whiteSpace=wrap;html=1;align=center;" parent="1" vertex="1">
          <mxGeometry x="144" y="-43.97" width="120" height="60" as="geometry" />
        </mxCell>
        <mxCell id="PeXRtOiVHppe9KRzmUJ1-72" style="edgeStyle=orthogonalEdgeStyle;rounded=0;orthogonalLoop=1;jettySize=auto;html=1;entryX=-0.017;entryY=0.523;entryDx=0;entryDy=0;entryPerimeter=0;endArrow=none;endFill=0;" parent="1" source="0NC9Y0o0XBNzcpzKdtO9-20" target="0NC9Y0o0XBNzcpzKdtO9-23" edge="1">
          <mxGeometry relative="1" as="geometry" />
        </mxCell>
        <mxCell id="PeXRtOiVHppe9KRzmUJ1-81" style="edgeStyle=orthogonalEdgeStyle;rounded=0;orthogonalLoop=1;jettySize=auto;html=1;entryX=0.5;entryY=1;entryDx=0;entryDy=0;endArrow=none;endFill=0;shape=link;exitX=0.5;exitY=0.033;exitDx=0;exitDy=0;exitPerimeter=0;" parent="1" target="0NC9Y0o0XBNzcpzKdtO9-6" edge="1" source="PeXRtOiVHppe9KRzmUJ1-88">
          <mxGeometry relative="1" as="geometry">
            <mxPoint x="55.00000000000023" y="-0.02999999999974534" as="sourcePoint" />
          </mxGeometry>
        </mxCell>
        <mxCell id="PeXRtOiVHppe9KRzmUJ1-88" value="Write" style="shape=rhombus;double=1;perimeter=rhombusPerimeter;whiteSpace=wrap;html=1;align=center;" parent="1" vertex="1">
          <mxGeometry x="54" y="99" width="120" height="60" as="geometry" />
        </mxCell>
        <mxCell id="PeXRtOiVHppe9KRzmUJ1-99" value="Transaction ID" style="ellipse;whiteSpace=wrap;html=1;align=center;fontStyle=4;" parent="1" vertex="1">
          <mxGeometry x="337" y="56" width="100" height="40" as="geometry" />
        </mxCell>
        <mxCell id="PeXRtOiVHppe9KRzmUJ1-103" value="&lt;span style=&quot;border-bottom: 1px dotted&quot;&gt;Name&lt;/span&gt;" style="ellipse;whiteSpace=wrap;html=1;align=center;" parent="1" vertex="1">
          <mxGeometry x="213" y="199" width="100" height="40" as="geometry" />
        </mxCell>
        <mxCell id="4kVZr0BEafaqYxeCBqYQ-7" value="" style="edgeStyle=orthogonalEdgeStyle;rounded=0;orthogonalLoop=1;jettySize=auto;html=1;endArrow=none;endFill=0;" edge="1" parent="1" source="4kVZr0BEafaqYxeCBqYQ-3" target="0NC9Y0o0XBNzcpzKdtO9-6">
          <mxGeometry relative="1" as="geometry">
            <Array as="points">
              <mxPoint x="124" y="-80" />
              <mxPoint x="124" y="-70" />
            </Array>
          </mxGeometry>
        </mxCell>
        <mxCell id="4kVZr0BEafaqYxeCBqYQ-3" value="Browse" style="shape=rhombus;perimeter=rhombusPerimeter;whiteSpace=wrap;html=1;align=center;" vertex="1" parent="1">
          <mxGeometry x="142" y="-152" width="120" height="60" as="geometry" />
        </mxCell>
        <mxCell id="4kVZr0BEafaqYxeCBqYQ-6" style="edgeStyle=orthogonalEdgeStyle;rounded=0;orthogonalLoop=1;jettySize=auto;html=1;entryX=0.992;entryY=0.5;entryDx=0;entryDy=0;entryPerimeter=0;endArrow=none;endFill=0;" edge="1" parent="1" target="4kVZr0BEafaqYxeCBqYQ-3">
          <mxGeometry relative="1" as="geometry">
            <mxPoint x="300" y="-69" as="sourcePoint" />
            <mxPoint x="264" y="-79.80999999999995" as="targetPoint" />
            <Array as="points">
              <mxPoint x="269" y="-69" />
              <mxPoint x="269" y="-122" />
            </Array>
          </mxGeometry>
        </mxCell>
        <mxCell id="4kVZr0BEafaqYxeCBqYQ-123" style="edgeStyle=orthogonalEdgeStyle;rounded=0;orthogonalLoop=1;jettySize=auto;html=1;endArrow=none;endFill=0;" edge="1" parent="1" source="4kVZr0BEafaqYxeCBqYQ-8">
          <mxGeometry relative="1" as="geometry">
            <mxPoint x="-168" y="219" as="targetPoint" />
          </mxGeometry>
        </mxCell>
        <mxCell id="4kVZr0BEafaqYxeCBqYQ-8" value="Publishers" style="shape=ext;margin=3;double=1;whiteSpace=wrap;html=1;align=center;" vertex="1" parent="1">
          <mxGeometry x="-122" y="199" width="100" height="40" as="geometry" />
        </mxCell>
        <mxCell id="4kVZr0BEafaqYxeCBqYQ-38" value="Publish" style="shape=rhombus;double=1;perimeter=rhombusPerimeter;whiteSpace=wrap;html=1;align=center;" vertex="1" parent="1">
          <mxGeometry x="-132" y="99" width="120" height="60" as="geometry" />
        </mxCell>
        <mxCell id="4kVZr0BEafaqYxeCBqYQ-39" style="edgeStyle=orthogonalEdgeStyle;rounded=0;orthogonalLoop=1;jettySize=auto;html=1;entryX=0.492;entryY=0.055;entryDx=0;entryDy=0;entryPerimeter=0;endArrow=none;endFill=0;shape=link;" edge="1" parent="1" source="0NC9Y0o0XBNzcpzKdtO9-6" target="4kVZr0BEafaqYxeCBqYQ-38">
          <mxGeometry relative="1" as="geometry">
            <Array as="points">
              <mxPoint x="38" y="25" />
              <mxPoint x="-73" y="25" />
            </Array>
          </mxGeometry>
        </mxCell>
        <mxCell id="4kVZr0BEafaqYxeCBqYQ-40" value="" style="shape=link;html=1;rounded=0;" edge="1" parent="1">
          <mxGeometry relative="1" as="geometry">
            <mxPoint x="-72.28999999999999" y="159" as="sourcePoint" />
            <mxPoint x="-72" y="198" as="targetPoint" />
          </mxGeometry>
        </mxCell>
        <mxCell id="4kVZr0BEafaqYxeCBqYQ-41" value="1" style="resizable=0;html=1;whiteSpace=wrap;align=left;verticalAlign=bottom;" connectable="0" vertex="1" parent="4kVZr0BEafaqYxeCBqYQ-40">
          <mxGeometry x="-1" relative="1" as="geometry">
            <mxPoint x="-14" y="13" as="offset" />
          </mxGeometry>
        </mxCell>
        <mxCell id="4kVZr0BEafaqYxeCBqYQ-42" value="N" style="resizable=0;html=1;whiteSpace=wrap;align=right;verticalAlign=bottom;" connectable="0" vertex="1" parent="4kVZr0BEafaqYxeCBqYQ-40">
          <mxGeometry x="1" relative="1" as="geometry">
            <mxPoint x="-4" y="-95" as="offset" />
          </mxGeometry>
        </mxCell>
        <mxCell id="4kVZr0BEafaqYxeCBqYQ-47" value="N" style="resizable=0;html=1;whiteSpace=wrap;align=right;verticalAlign=bottom;" connectable="0" vertex="1" parent="4kVZr0BEafaqYxeCBqYQ-40">
          <mxGeometry x="1" relative="1" as="geometry">
            <mxPoint x="182" y="-94" as="offset" />
          </mxGeometry>
        </mxCell>
        <mxCell id="4kVZr0BEafaqYxeCBqYQ-48" value="1" style="resizable=0;html=1;whiteSpace=wrap;align=left;verticalAlign=bottom;" connectable="0" vertex="1" parent="4kVZr0BEafaqYxeCBqYQ-40">
          <mxGeometry x="-1" relative="1" as="geometry">
            <mxPoint x="172" y="14" as="offset" />
          </mxGeometry>
        </mxCell>
        <mxCell id="4kVZr0BEafaqYxeCBqYQ-58" value="1" style="resizable=0;html=1;whiteSpace=wrap;align=left;verticalAlign=bottom;" connectable="0" vertex="1" parent="1">
          <mxGeometry x="-172" y="-72" as="geometry" />
        </mxCell>
        <mxCell id="4kVZr0BEafaqYxeCBqYQ-59" value="N" style="resizable=0;html=1;whiteSpace=wrap;align=right;verticalAlign=bottom;" connectable="0" vertex="1" parent="1">
          <mxGeometry x="-35" y="-71" as="geometry" />
        </mxCell>
        <mxCell id="4kVZr0BEafaqYxeCBqYQ-62" value="0" style="resizable=0;html=1;whiteSpace=wrap;align=left;verticalAlign=bottom;direction=south;" connectable="0" vertex="1" parent="1">
          <mxGeometry x="282" y="-69" as="geometry" />
        </mxCell>
        <mxCell id="4kVZr0BEafaqYxeCBqYQ-63" value="N" style="resizable=0;html=1;whiteSpace=wrap;align=right;verticalAlign=bottom;" connectable="0" vertex="1" parent="1">
          <mxGeometry x="123" y="-70" as="geometry" />
        </mxCell>
        <mxCell id="4kVZr0BEafaqYxeCBqYQ-68" value="Borrow_Date" style="ellipse;whiteSpace=wrap;html=1;align=center;" vertex="1" parent="1">
          <mxGeometry x="234" y="55.99714285714289" width="100" height="40" as="geometry" />
        </mxCell>
        <mxCell id="4kVZr0BEafaqYxeCBqYQ-101" style="rounded=0;orthogonalLoop=1;jettySize=auto;html=1;endArrow=none;endFill=0;" edge="1" parent="1" source="4kVZr0BEafaqYxeCBqYQ-70">
          <mxGeometry relative="1" as="geometry">
            <mxPoint x="72" y="-91" as="targetPoint" />
          </mxGeometry>
        </mxCell>
        <mxCell id="4kVZr0BEafaqYxeCBqYQ-70" value="Period" style="ellipse;whiteSpace=wrap;html=1;align=center;" vertex="1" parent="1">
          <mxGeometry x="-72" y="-327" width="100" height="40" as="geometry" />
        </mxCell>
        <mxCell id="4kVZr0BEafaqYxeCBqYQ-83" value="Return_Date" style="ellipse;whiteSpace=wrap;html=1;align=center;dashed=1;" vertex="1" parent="1">
          <mxGeometry x="131" y="56" width="100" height="40" as="geometry" />
        </mxCell>
        <mxCell id="4kVZr0BEafaqYxeCBqYQ-85" value="Edit Profile" style="shape=rhombus;perimeter=rhombusPerimeter;whiteSpace=wrap;html=1;align=center;" vertex="1" parent="1">
          <mxGeometry x="290" y="-226" width="120" height="60" as="geometry" />
        </mxCell>
        <mxCell id="4kVZr0BEafaqYxeCBqYQ-88" style="edgeStyle=orthogonalEdgeStyle;rounded=0;orthogonalLoop=1;jettySize=auto;html=1;entryX=1.005;entryY=0.499;entryDx=0;entryDy=0;entryPerimeter=0;endArrow=none;endFill=0;" edge="1" parent="1" source="0NC9Y0o0XBNzcpzKdtO9-1" target="4kVZr0BEafaqYxeCBqYQ-85">
          <mxGeometry relative="1" as="geometry">
            <Array as="points">
              <mxPoint x="419" y="-85" />
              <mxPoint x="419" y="-196" />
            </Array>
          </mxGeometry>
        </mxCell>
        <mxCell id="4kVZr0BEafaqYxeCBqYQ-91" style="edgeStyle=orthogonalEdgeStyle;rounded=0;orthogonalLoop=1;jettySize=auto;html=1;entryX=0.01;entryY=0.397;entryDx=0;entryDy=0;entryPerimeter=0;endArrow=none;endFill=0;" edge="1" parent="1" source="4kVZr0BEafaqYxeCBqYQ-85" target="0NC9Y0o0XBNzcpzKdtO9-1">
          <mxGeometry relative="1" as="geometry">
            <Array as="points">
              <mxPoint x="279" y="-196" />
              <mxPoint x="279" y="-85" />
              <mxPoint x="300" y="-85" />
              <mxPoint x="300" y="-74" />
            </Array>
          </mxGeometry>
        </mxCell>
        <mxCell id="4kVZr0BEafaqYxeCBqYQ-92" value="Edit Profile" style="shape=rhombus;perimeter=rhombusPerimeter;whiteSpace=wrap;html=1;align=center;" vertex="1" parent="1">
          <mxGeometry x="-310" y="-226.05" width="120" height="60" as="geometry" />
        </mxCell>
        <mxCell id="4kVZr0BEafaqYxeCBqYQ-93" style="edgeStyle=orthogonalEdgeStyle;rounded=0;orthogonalLoop=1;jettySize=auto;html=1;entryX=1.005;entryY=0.499;entryDx=0;entryDy=0;entryPerimeter=0;endArrow=none;endFill=0;" edge="1" parent="1" target="4kVZr0BEafaqYxeCBqYQ-92">
          <mxGeometry relative="1" as="geometry">
            <mxPoint x="-200" y="-85.05" as="sourcePoint" />
            <Array as="points">
              <mxPoint x="-181" y="-85.05" />
              <mxPoint x="-181" y="-196.05" />
            </Array>
          </mxGeometry>
        </mxCell>
        <mxCell id="4kVZr0BEafaqYxeCBqYQ-94" style="edgeStyle=orthogonalEdgeStyle;rounded=0;orthogonalLoop=1;jettySize=auto;html=1;entryX=0.01;entryY=0.397;entryDx=0;entryDy=0;entryPerimeter=0;endArrow=none;endFill=0;" edge="1" parent="1" source="4kVZr0BEafaqYxeCBqYQ-92">
          <mxGeometry relative="1" as="geometry">
            <mxPoint x="-299" y="-74.05" as="targetPoint" />
            <Array as="points">
              <mxPoint x="-321" y="-196.05" />
              <mxPoint x="-321" y="-85.05" />
              <mxPoint x="-300" y="-85.05" />
              <mxPoint x="-300" y="-74.05" />
            </Array>
          </mxGeometry>
        </mxCell>
        <mxCell id="4kVZr0BEafaqYxeCBqYQ-97" style="rounded=0;orthogonalLoop=1;jettySize=auto;html=1;entryX=0.598;entryY=0.013;entryDx=0;entryDy=0;entryPerimeter=0;endArrow=none;endFill=0;exitX=0.51;exitY=1;exitDx=0;exitDy=0;exitPerimeter=0;" edge="1" parent="1" source="0NC9Y0o0XBNzcpzKdtO9-11">
          <mxGeometry relative="1" as="geometry">
            <mxPoint x="116.24559985039919" y="-266.99842651770564" as="sourcePoint" />
            <mxPoint x="71.99999999999996" y="-89.38000000000002" as="targetPoint" />
          </mxGeometry>
        </mxCell>
        <mxCell id="4kVZr0BEafaqYxeCBqYQ-98" style="rounded=0;orthogonalLoop=1;jettySize=auto;html=1;entryX=0.303;entryY=0.967;entryDx=0;entryDy=0;entryPerimeter=0;endArrow=none;endFill=0;" edge="1" parent="1" target="PeXRtOiVHppe9KRzmUJ1-39">
          <mxGeometry relative="1" as="geometry">
            <mxPoint x="72" y="-91" as="sourcePoint" />
          </mxGeometry>
        </mxCell>
        <mxCell id="4kVZr0BEafaqYxeCBqYQ-99" style="rounded=0;orthogonalLoop=1;jettySize=auto;html=1;entryX=0.682;entryY=-0.029;entryDx=0;entryDy=0;entryPerimeter=0;endArrow=none;endFill=0;" edge="1" parent="1" source="0NC9Y0o0XBNzcpzKdtO9-15" target="0NC9Y0o0XBNzcpzKdtO9-6">
          <mxGeometry relative="1" as="geometry" />
        </mxCell>
        <mxCell id="4kVZr0BEafaqYxeCBqYQ-100" style="rounded=0;orthogonalLoop=1;jettySize=auto;html=1;endArrow=none;endFill=0;" edge="1" parent="1" source="0NC9Y0o0XBNzcpzKdtO9-13">
          <mxGeometry relative="1" as="geometry">
            <mxPoint x="73" y="-91" as="targetPoint" />
          </mxGeometry>
        </mxCell>
        <mxCell id="0NC9Y0o0XBNzcpzKdtO9-11" value="ISBN" style="ellipse;whiteSpace=wrap;html=1;align=center;fontStyle=4;" parent="1" vertex="1">
          <mxGeometry x="1" y="-277" width="100" height="40" as="geometry" />
        </mxCell>
        <mxCell id="0NC9Y0o0XBNzcpzKdtO9-15" value="Author" style="ellipse;whiteSpace=wrap;html=1;align=center;" parent="1" vertex="1">
          <mxGeometry x="113" y="-277" width="100" height="40" as="geometry" />
        </mxCell>
        <mxCell id="4kVZr0BEafaqYxeCBqYQ-110" style="edgeStyle=orthogonalEdgeStyle;rounded=0;orthogonalLoop=1;jettySize=auto;html=1;endArrow=none;endFill=0;" edge="1" parent="1" source="4kVZr0BEafaqYxeCBqYQ-103">
          <mxGeometry relative="1" as="geometry">
            <mxPoint x="-101" y="-241.71428571428578" as="targetPoint" />
          </mxGeometry>
        </mxCell>
        <mxCell id="4kVZr0BEafaqYxeCBqYQ-103" value="Search" style="shape=rhombus;perimeter=rhombusPerimeter;whiteSpace=wrap;html=1;align=center;" vertex="1" parent="1">
          <mxGeometry x="-161" y="-187" width="120" height="60" as="geometry" />
        </mxCell>
        <mxCell id="4kVZr0BEafaqYxeCBqYQ-104" style="edgeStyle=orthogonalEdgeStyle;rounded=0;orthogonalLoop=1;jettySize=auto;html=1;entryX=0;entryY=0.433;entryDx=0;entryDy=0;entryPerimeter=0;endArrow=none;endFill=0;" edge="1" parent="1">
          <mxGeometry relative="1" as="geometry">
            <mxPoint x="-196" y="-70" as="sourcePoint" />
            <mxPoint x="-161" y="-157.0200000000001" as="targetPoint" />
            <Array as="points">
              <mxPoint x="-173" y="-70" />
              <mxPoint x="-173" y="-157" />
            </Array>
          </mxGeometry>
        </mxCell>
        <mxCell id="4kVZr0BEafaqYxeCBqYQ-105" style="edgeStyle=orthogonalEdgeStyle;rounded=0;orthogonalLoop=1;jettySize=auto;html=1;entryX=0.965;entryY=0.502;entryDx=0;entryDy=0;entryPerimeter=0;endArrow=none;endFill=0;" edge="1" parent="1">
          <mxGeometry relative="1" as="geometry">
            <mxPoint x="354.2" y="-90.02999999999997" as="sourcePoint" />
            <mxPoint x="-40.99999999999993" y="-156.88" as="targetPoint" />
            <Array as="points">
              <mxPoint x="354" y="-157" />
              <mxPoint x="-40" y="-157" />
            </Array>
          </mxGeometry>
        </mxCell>
        <mxCell id="4kVZr0BEafaqYxeCBqYQ-118" value="Search_Term" style="ellipse;whiteSpace=wrap;html=1;align=center;" vertex="1" parent="1">
          <mxGeometry x="-151" y="-282" width="100" height="40" as="geometry" />
        </mxCell>
        <mxCell id="4kVZr0BEafaqYxeCBqYQ-120" style="rounded=0;orthogonalLoop=1;jettySize=auto;html=1;exitX=0.493;exitY=0.99;exitDx=0;exitDy=0;exitPerimeter=0;endArrow=none;endFill=0;entryX=0.216;entryY=-0.004;entryDx=0;entryDy=0;entryPerimeter=0;" edge="1" parent="1" source="4kVZr0BEafaqYxeCBqYQ-103" target="0NC9Y0o0XBNzcpzKdtO9-6">
          <mxGeometry relative="1" as="geometry">
            <mxPoint x="26" y="-92" as="targetPoint" />
            <Array as="points">
              <mxPoint x="26" y="-128" />
            </Array>
          </mxGeometry>
        </mxCell>
        <mxCell id="4kVZr0BEafaqYxeCBqYQ-121" style="edgeStyle=orthogonalEdgeStyle;rounded=0;orthogonalLoop=1;jettySize=auto;html=1;entryX=0.459;entryY=-0.049;entryDx=0;entryDy=0;entryPerimeter=0;endArrow=none;endFill=0;" edge="1" parent="1" source="4kVZr0BEafaqYxeCBqYQ-3" target="0NC9Y0o0XBNzcpzKdtO9-4">
          <mxGeometry relative="1" as="geometry" />
        </mxCell>
        <mxCell id="4kVZr0BEafaqYxeCBqYQ-124" value="&lt;span style=&quot;border-bottom: 1px dotted&quot;&gt;Name&lt;/span&gt;" style="ellipse;whiteSpace=wrap;html=1;align=center;" vertex="1" parent="1">
          <mxGeometry x="-265" y="199" width="100" height="40" as="geometry" />
        </mxCell>
      </root>
    </mxGraphModel>
  </diagram>
</mxfile>
